<?xml version="1.0" encoding="iso-8859-1"?>
<!-- Generator: Adobe Illustrator 19.0.0, SVG Export Plug-In . SVG Version: 6.00 Build 0)  -->
<svg version="1.1" id="Capa_1" xmlns="http://www.w3.org/2000/svg" xmlns:xlink="http://www.w3.org/1999/xlink" x="0px" y="0px"
	 viewBox="0 0 512 512" style="enable-background:new 0 0 512 512;" xml:space="preserve">
<path style="fill:#303C42;" d="M501.333,213.339c5.896,0,10.667-4.771,10.667-10.667v-42.667c0-5.897-4.771-10.667-10.667-10.667
	h-10.667v-32c0-2.313-0.751-4.553-2.125-6.396l-32-42.667c-4.043-5.376-13.042-5.376-17.083,0l-32,42.667
	c-1.374,1.842-2.125,4.083-2.125,6.396v32h-42.667v-32c0-2.313-0.751-4.553-2.125-6.396l-32-42.667
	c-4.043-5.376-13.042-5.376-17.083,0l-32,42.667c-1.374,1.842-2.125,4.083-2.125,6.396v32H252.19l3.706-26.667
	c0.313-2.292-0.105-4.625-1.229-6.646l-25.833-46.533c-1.625-2.927-4.542-4.926-7.876-5.384c-3.313-0.501-6.645,0.655-9.02,3.042
	l-37.564,37.771c-1.622,1.634-2.685,3.759-2.999,6.052l-5.332,38.365h-59.376v-32c0-2.313-0.751-4.553-2.125-6.396l-32-42.667
	c-4.043-5.376-13.042-5.376-17.083,0l-32,42.667c-1.374,1.842-2.125,4.083-2.125,6.396v32H10.667C4.77,149.339,0,154.108,0,160.006
	v42.667c0,5.896,4.77,10.667,10.667,10.667h10.667v85.333H10.667C4.77,298.672,0,303.442,0,309.339v42.667
	c0,5.896,4.77,10.667,10.667,10.667h10.667v74.667c0,5.896,4.77,10.667,10.667,10.667h64c5.896,0,10.667-4.771,10.667-10.667
	v-74.667h29.725l-8.956,64.438c-0.395,2.802,0.354,5.646,2.064,7.906c1.708,2.26,4.23,3.74,7.042,4.125l63.396,8.759
	c0.5,0.073,0.98,0.105,1.479,0.105c5.228,0,9.813-3.866,10.54-9.199l10.583-76.134h54.793v74.667c0,5.896,4.77,10.667,10.667,10.667
	h64c5.896,0,10.667-4.771,10.667-10.667v-74.667h42.667v74.667c0,5.896,4.77,10.667,10.667,10.667h64
	c5.896,0,10.667-4.771,10.667-10.667v-74.667h10.667c5.896,0,10.667-4.771,10.667-10.667v-42.667
	c0-5.897-4.771-10.667-10.667-10.667h-10.667v-85.333H501.333z M145.288,298.672h-38.621v-85.333h50.48L145.288,298.672z
	 M277.333,298.672h-45.898l11.859-85.333h34.039V298.672z M405.333,298.672h-42.667v-85.333h42.667V298.672z"/>
<rect x="106.667" y="170.667" style="opacity:0.1;enable-background:new    ;" width="21.333" height="21.333"/>
<rect x="106.667" y="320" style="opacity:0.1;enable-background:new    ;" width="21.333" height="21.333"/>
<rect x="362.667" y="170.667" style="opacity:0.1;enable-background:new    ;" width="21.333" height="21.333"/>
<rect x="362.667" y="320" style="opacity:0.1;enable-background:new    ;" width="21.333" height="21.333"/>
<polygon style="opacity:0.1;enable-background:new    ;" points="249.229,170.672 246.259,192.006 267.493,192.006 270.459,170.672 
	"/>
<polygon style="opacity:0.1;enable-background:new    ;" points="228.254,320.006 225.506,341.339 247.01,341.339 251.264,320.006 
	"/>
<g>
	<rect x="362.667" y="170.667" style="fill:#9D581F;" width="42.667" height="21.333"/>
	<polygon style="fill:#9D581F;" points="249.229,170.672 277.333,170.672 277.333,192.006 246.259,192.006 248.279,177.473 	"/>
	<polygon style="fill:#9D581F;" points="163.078,170.672 161.963,178.698 160.104,192.006 106.667,192.006 106.667,170.672 	"/>
	<polygon style="fill:#9D581F;" points="85.333,426.672 42.667,426.672 42.667,120.891 64,92.454 85.333,120.891 	"/>
	<polygon style="fill:#9D581F;" points="139.353,341.339 106.667,341.339 106.667,320.006 142.323,320.006 140.2,335.274 	"/>
	<polygon style="fill:#9D581F;" points="192.292,425.318 150.041,419.474 192.021,117.443 217.062,92.255 234.27,123.265 	"/>
	<polygon style="fill:#9D581F;" points="225.506,341.339 226.517,334.051 228.48,320.006 277.333,320.006 277.333,341.339 	"/>
	<polygon style="fill:#9D581F;" points="341.333,426.672 298.667,426.672 298.667,120.891 320,92.454 341.333,120.891 	"/>
	<rect x="362.667" y="320" style="fill:#9D581F;" width="42.667" height="21.333"/>
	<polygon style="fill:#9D581F;" points="469.333,426.672 426.667,426.672 426.667,120.891 448,92.454 469.333,120.891 	"/>
</g>
<g>
	<polygon style="opacity:0.2;fill:#FFFFFF;enable-background:new    ;" points="64,92.454 42.667,120.891 42.667,426.672 
		64,426.672 	"/>
	<polygon style="opacity:0.2;fill:#FFFFFF;enable-background:new    ;" points="171.191,422.399 150.041,419.474 192.021,117.443 
		217.062,92.255 	"/>
	<polygon style="opacity:0.2;fill:#FFFFFF;enable-background:new    ;" points="320,92.454 298.667,120.891 298.667,426.672 
		320,426.672 	"/>
	<polygon style="opacity:0.2;fill:#FFFFFF;enable-background:new    ;" points="448,92.454 426.667,120.891 426.667,426.672 
		448,426.672 	"/>
</g>
<linearGradient id="SVGID_1_" gradientUnits="userSpaceOnUse" x1="-46.4617" y1="639.6133" x2="-22.5045" y2="628.4437" gradientTransform="matrix(21.3333 0 0 -21.3333 996.3334 13791.667)">
	<stop  offset="0" style="stop-color:#FFFFFF;stop-opacity:0.2"/>
	<stop  offset="1" style="stop-color:#FFFFFF;stop-opacity:0"/>
</linearGradient>
<path style="fill:url(#SVGID_1_);" d="M501.333,213.339c5.896,0,10.667-4.771,10.667-10.667v-42.667
	c0-5.897-4.771-10.667-10.667-10.667h-10.667v-32c0-2.313-0.751-4.553-2.125-6.396l-32-42.667c-4.043-5.376-13.042-5.376-17.083,0
	l-32,42.667c-1.374,1.842-2.125,4.083-2.125,6.396v32h-42.667v-32c0-2.313-0.751-4.553-2.125-6.396l-32-42.667
	c-4.043-5.376-13.042-5.376-17.083,0l-32,42.667c-1.374,1.842-2.125,4.083-2.125,6.396v32H252.19l3.706-26.667
	c0.313-2.292-0.105-4.625-1.229-6.646l-25.833-46.533c-1.625-2.927-4.542-4.926-7.876-5.384c-3.313-0.501-6.645,0.655-9.02,3.042
	l-37.564,37.771c-1.622,1.634-2.685,3.759-2.999,6.052l-5.332,38.365h-59.376v-32c0-2.313-0.751-4.553-2.125-6.396l-32-42.667
	c-4.043-5.376-13.042-5.376-17.083,0l-32,42.667c-1.374,1.842-2.125,4.083-2.125,6.396v32H10.667C4.77,149.339,0,154.108,0,160.006
	v42.667c0,5.896,4.77,10.667,10.667,10.667h10.667v85.333H10.667C4.77,298.672,0,303.442,0,309.339v42.667
	c0,5.896,4.77,10.667,10.667,10.667h10.667v74.667c0,5.896,4.77,10.667,10.667,10.667h64c5.896,0,10.667-4.771,10.667-10.667
	v-74.667h29.725l-8.956,64.438c-0.395,2.802,0.354,5.646,2.064,7.906c1.708,2.26,4.23,3.74,7.042,4.125l63.396,8.759
	c0.5,0.073,0.98,0.105,1.479,0.105c5.228,0,9.813-3.866,10.54-9.199l10.583-76.134h54.793v74.667c0,5.896,4.77,10.667,10.667,10.667
	h64c5.896,0,10.667-4.771,10.667-10.667v-74.667h42.667v74.667c0,5.896,4.77,10.667,10.667,10.667h64
	c5.896,0,10.667-4.771,10.667-10.667v-74.667h10.667c5.896,0,10.667-4.771,10.667-10.667v-42.667
	c0-5.897-4.771-10.667-10.667-10.667h-10.667v-85.333H501.333z M145.288,298.672h-38.621v-85.333h50.48L145.288,298.672z
	 M277.333,298.672h-45.898l11.859-85.333h34.039V298.672z M405.333,298.672h-42.667v-85.333h42.667V298.672z"/>
<g>
</g>
<g>
</g>
<g>
</g>
<g>
</g>
<g>
</g>
<g>
</g>
<g>
</g>
<g>
</g>
<g>
</g>
<g>
</g>
<g>
</g>
<g>
</g>
<g>
</g>
<g>
</g>
<g>
</g>
</svg>
