<?xml version="1.0" encoding="iso-8859-1"?>
<!-- Generator: Adobe Illustrator 19.0.0, SVG Export Plug-In . SVG Version: 6.00 Build 0)  -->
<svg version="1.1" id="Layer_1" xmlns="http://www.w3.org/2000/svg" xmlns:xlink="http://www.w3.org/1999/xlink" x="0px" y="0px"
	 viewBox="0 0 507.8 507.8" style="enable-background:new 0 0 507.8 507.8;" xml:space="preserve">
<g>
	<g>
		<path d="M253.944,146.904c-65.676,0-119.104,53.428-119.104,119.1c0,39.776,19.748,76.776,52.828,98.964
			c1.832,1.236,4.32,0.748,5.548-1.092c1.232-1.832,0.744-4.316-1.092-5.548c-30.86-20.704-49.28-55.22-49.28-92.324
			c0-61.26,49.84-111.1,111.104-111.1c61.26,0,111.1,49.84,111.1,111.1c0,37.268-18.548,71.864-49.616,92.552
			c-1.84,1.224-2.34,3.708-1.112,5.544c0.768,1.16,2.04,1.784,3.332,1.784c0.764,0,1.532-0.216,2.204-0.672
			c33.304-22.168,53.188-59.26,53.188-99.208C373.044,200.332,319.616,146.904,253.944,146.904z"/>
	</g>
</g>
<g>
	<g>
		<path d="M289.6,396.664h-71.4c-2.212,0-4,1.788-4,4v45.372c0,18.748,15.16,33.996,33.792,33.996h12.172
			c18.436,0,33.436-15.248,33.436-33.996v-45.372C293.6,398.452,291.812,396.664,289.6,396.664z M285.596,446.036
			c0,14.336-11.408,25.996-25.432,25.996h-12.172c-14.22,0-25.792-11.66-25.792-25.996v-41.372h63.396V446.036z"/>
	</g>
</g>
<g>
	<g>
		<path d="M193.46,359.36l-1.24-0.912c-1.8-1.296-4.292-0.892-5.584,0.9c-1.292,1.792-0.888,4.292,0.9,5.584l1.112,0.816
			c13.184,9.888,26.12,28.852,26.12,38.28c0,2.212,1.788,4,4,4c2.212,0,4-1.788,4-3.996
			C222.768,390.664,207.32,369.756,193.46,359.36z"/>
	</g>
</g>
<g>
	<g>
		<path d="M321.644,358.92c-1.3-1.78-3.908-2.096-5.696-0.796l-0.996,0.736c-13.868,10.408-29.32,31.312-29.32,44.68
			c0,2.212,1.788,4,4,4c2.208,0,4-1.788,4.004-4.004c0-9.428,12.94-28.388,26.132-38.288l1.116-0.82
			C322.664,363.128,322.948,360.704,321.644,358.92z"/>
	</g>
</g>
<g>
	<g>
		<path d="M265.8,472.032c-2.212,0-4,1.788-4,4v10.64c0,0.728-0.12,1.156-0.1,1.228h-15.404c-0.056-0.052-0.292-0.44-0.292-1.228
			v-10.64c0-2.212-1.788-4-4-4c-2.212,0-4,1.788-4,4v10.64c0,5.348,3.544,9.228,8.436,9.228h15.288c4.828,0,8.072-3.708,8.072-9.228
			v-10.64C269.8,473.82,268.012,472.032,265.8,472.032z"/>
	</g>
</g>
<g>
	<g>
		<path d="M243.896,399.564L210.92,272.636c-0.556-2.14-2.764-3.432-4.876-2.864c-2.14,0.556-3.424,2.74-2.868,4.876l32.976,126.924
			c0.468,1.804,2.092,2.996,3.868,2.996c0.336,0,0.672-0.04,1.008-0.128C243.168,403.884,244.452,401.7,243.896,399.564z"/>
	</g>
</g>
<g>
	<g>
		<path d="M302.132,269.772c-2.116-0.568-4.316,0.728-4.876,2.864L264.28,399.564c-0.552,2.136,0.728,4.32,2.868,4.876
			c0.336,0.088,0.672,0.128,1.008,0.128c1.78,0,3.4-1.192,3.868-2.996L305,274.648C305.552,272.512,304.272,270.328,302.132,269.772
			z"/>
	</g>
</g>
<g>
	<g>
		<path d="M297.212,277.724c-5.716,0-8.496,4.02-10.528,6.952c-1.876,2.716-2.624,3.504-3.944,3.504s-2.064-0.788-3.944-3.504
			c-2.032-2.932-4.808-6.952-10.524-6.952c-5.716,0-8.492,4.02-10.524,6.952c-1.876,2.716-2.624,3.504-3.944,3.504
			c-1.312,0-2.056-0.788-3.928-3.504c-2.028-2.932-4.804-6.952-10.512-6.952c-5.716,0-8.496,4.02-10.524,6.956
			c-1.876,2.712-2.62,3.5-3.936,3.5c-1.316,0-2.06-0.788-3.936-3.504c-2.028-2.932-4.804-6.952-10.516-6.952c-2.212,0-4,1.788-4,4
			c0,2.212,1.788,4,4,4c1.316,0,2.06,0.788,3.936,3.504c2.028,2.932,4.804,6.952,10.516,6.952c5.712,0,8.488-4.02,10.516-6.952
			c1.876-2.716,2.624-3.504,3.944-3.504c1.312,0,2.052,0.788,3.924,3.5c2.028,2.936,4.804,6.956,10.516,6.956
			c5.716,0,8.492-4.02,10.524-6.952c1.876-2.716,2.624-3.504,3.944-3.504s2.064,0.788,3.944,3.504
			c2.032,2.932,4.808,6.952,10.524,6.952s8.492-4.02,10.524-6.952c1.876-2.716,2.624-3.504,3.948-3.504c2.212,0,4-1.788,4-4
			C301.212,279.512,299.424,277.724,297.212,277.724z"/>
	</g>
</g>
<g>
	<g>
		<path d="M310.304,182.24c-1.824-1.232-4.316-0.752-5.552,1.076c-1.236,1.832-0.756,4.32,1.076,5.556
			c25.676,17.352,41.008,46.188,41.008,77.132c0,2.212,1.788,4,4,4c2.212,0,4-1.788,4-4.004
			C354.836,232.396,338.188,201.08,310.304,182.24z"/>
	</g>
</g>
<g>
	<g>
		<path d="M265.796,420.468H218.2c-2.212,0-4,1.788-4,4c0,2.212,1.788,4,4,4h47.6c2.208,0,3.996-1.788,3.996-4
			C269.796,422.256,268.008,420.468,265.796,420.468z"/>
	</g>
</g>
<g>
	<g>
		<path d="M265.796,440.3H218.2c-2.212,0-4,1.788-4,4c0,2.212,1.788,4,4,4h47.6c2.208,0,3.996-1.788,3.996-4
			C269.796,442.088,268.008,440.3,265.796,440.3z"/>
	</g>
</g>
<g>
	<g>
		<path d="M289.6,420.468h-7.932c-2.212,0-4,1.788-4,4c0,2.212,1.788,4,4,4h7.932c2.212,0,4-1.788,4-4
			C293.6,422.256,291.812,420.468,289.6,420.468z"/>
	</g>
</g>
<g>
	<g>
		<path d="M289.6,440.3h-7.932c-2.212,0-4,1.788-4,4c0,2.212,1.788,4,4,4h7.932c2.212,0,4-1.788,4-4
			C293.6,442.088,291.812,440.3,289.6,440.3z"/>
	</g>
</g>
<g>
	<g>
		<path d="M285.632,456.164h-63.468c-2.212,0-4,1.788-4,4c0,2.212,1.788,4,4,4h63.472c2.208,0,3.996-1.788,3.996-4
			C289.632,457.952,287.844,456.164,285.632,456.164z"/>
	</g>
</g>
<g>
	<g>
		<path d="M115.064,261.8H4c-2.212,0-4,1.788-4,4c0,2.212,1.788,4,4,4h111.064c2.212,0,4-1.788,4-4
			C119.064,263.588,117.276,261.8,115.064,261.8z"/>
	</g>
</g>
<g>
	<g>
		<path d="M503.8,261.8H392.732c-2.212,0-4,1.788-4,4c0,2.212,1.788,4,4,4H503.8c2.208,0,4-1.788,4-4
			C507.8,263.588,506.012,261.8,503.8,261.8z"/>
	</g>
</g>
<g>
	<g>
		<path d="M253.9,11.9c-2.212,0-4,1.792-4,4v111.068c0,2.208,1.788,4,4,4c2.212,0,4-1.792,4-4V15.9
			C257.9,13.692,256.112,11.9,253.9,11.9z"/>
	</g>
</g>
<g>
	<g>
		<path d="M433.508,86.24c-1.564-1.564-4.092-1.564-5.656,0l-78.536,78.536c-1.564,1.564-1.564,4.092,0,5.656
			c0.78,0.78,1.804,1.172,2.828,1.172c1.02,0,2.044-0.392,2.828-1.172l78.536-78.536C435.072,90.332,435.072,87.804,433.508,86.24z"
			/>
	</g>
</g>
<g>
	<g>
		<path d="M158.572,164.776L80.032,86.24c-1.564-1.564-4.092-1.564-5.656,0c-1.564,1.564-1.564,4.092,0,5.656l78.54,78.536
			c0.78,0.78,1.804,1.172,2.828,1.172s2.048-0.392,2.828-1.172C160.136,168.868,160.136,166.34,158.572,164.776z"/>
	</g>
</g>
<g>
	<g>
		<path d="M351.12,31.188c-2.028-0.844-4.384,0.124-5.228,2.164l-42.5,102.608c-0.844,2.044,0.124,4.384,2.164,5.228
			c0.5,0.208,1.02,0.308,1.532,0.308c1.564,0,3.06-0.932,3.696-2.472l42.5-102.608C354.128,34.372,353.16,32.032,351.12,31.188z"/>
	</g>
</g>
<g>
	<g>
		<path d="M127.168,208.96L24.556,166.452c-2.032-0.84-4.384,0.12-5.228,2.164s0.124,4.384,2.164,5.228l102.616,42.508
			c0.5,0.208,1.02,0.308,1.532,0.308c1.564,0,3.056-0.932,3.692-2.472C130.176,212.144,129.208,209.804,127.168,208.96z"/>
	</g>
</g>
<g>
	<g>
		<path d="M204.492,135.96L161.988,33.352c-0.844-2.04-3.192-3.004-5.228-2.164c-2.04,0.848-3.008,3.188-2.164,5.228L197.1,139.024
			c0.636,1.54,2.128,2.472,3.696,2.472c0.512,0,1.028-0.1,1.532-0.308C204.368,140.34,205.336,138,204.492,135.96z"/>
	</g>
</g>
<g>
	<g>
		<path d="M488.552,168.616c-0.844-2.044-3.192-3.004-5.228-2.164L380.712,208.96c-2.04,0.848-3.008,3.188-2.164,5.228
			c0.636,1.544,2.128,2.472,3.696,2.472c0.512,0,1.032-0.1,1.532-0.308l102.612-42.508
			C488.428,172.996,489.396,170.656,488.552,168.616z"/>
	</g>
</g>
<g>
</g>
<g>
</g>
<g>
</g>
<g>
</g>
<g>
</g>
<g>
</g>
<g>
</g>
<g>
</g>
<g>
</g>
<g>
</g>
<g>
</g>
<g>
</g>
<g>
</g>
<g>
</g>
<g>
</g>
</svg>
