<?xml version="1.0" encoding="iso-8859-1"?>
<!-- Generator: Adobe Illustrator 16.0.0, SVG Export Plug-In . SVG Version: 6.00 Build 0)  -->
<!DOCTYPE svg PUBLIC "-//W3C//DTD SVG 1.1//EN" "http://www.w3.org/Graphics/SVG/1.1/DTD/svg11.dtd">
<svg version="1.1" id="Capa_1" xmlns="http://www.w3.org/2000/svg" xmlns:xlink="http://www.w3.org/1999/xlink" x="0px" y="0px"
	 width="792px" height="792px" viewBox="0 0 792 792" style="enable-background:new 0 0 792 792;" xml:space="preserve">
<g>
	<g>
		<path d="M492.241,570.63H299.852c-11.299,0-21.59,10.876-21.59,22.82v78.073c0,7.064,4.719,16.856,13.574,16.856h208.361
			c8.851,0,13.565-9.792,13.565-16.856V593.45C513.766,582.679,504.558,570.63,492.241,570.63z M494.926,669.54h-197.82v-76.09
			c0-1.573,1.875-3.792,2.751-3.98l192.257-0.009c0.951,0.221,2.812,2.454,2.812,3.989V669.54z"/>
		<path d="M604.005,139.289C571.731,57.278,486.203,0,396.016,0c-90.182,0-175.711,57.278-207.994,139.293
			c-20.7,52.644-19.198,109.969,4.22,161.412c10.018,22.019,23.258,42.512,36.055,62.327c18.996,29.405,36.936,57.175,45.484,89.697
			c4.974,19.075,4.837,38.312,4.701,58.677c-0.047,6.359-0.089,12.746,0.028,19.265c0.339,12.038,10.178,21.119,22.881,21.119
			h189.239c12.684,0,22.711-9.354,22.829-21.223c0.108-6.373,0.065-12.731,0.023-19.081c-0.142-20.62-0.273-40.101,4.762-59.219
			c8.544-32.508,26.466-60.184,45.438-89.485c12.825-19.801,26.079-40.275,36.111-62.323
			C623.17,249.088,624.663,191.848,604.005,139.289z M582.649,292.66c-9.457,20.781-22.325,40.657-34.778,59.883
			c-18.943,29.254-38.537,59.506-47.849,94.931c-5.666,21.533-5.521,43.195-5.379,64.141c0.042,6.198,0.089,12.406-0.023,18.698
			c-0.02,1.936-2.397,2.638-3.989,2.638H301.397c-1.375,0-3.989-0.589-4.046-2.713c-0.108-6.265-0.071-12.496-0.023-18.698
			c0.141-20.691,0.292-42.084-5.313-63.581c-9.321-35.447-28.929-65.798-47.887-95.151c-12.434-19.245-25.288-39.149-34.736-59.911
			c-21.285-46.756-22.646-98.863-3.83-146.712C235.071,71.21,313.389,18.84,396.016,18.84c82.637,0,160.955,52.371,190.458,127.349
			C605.248,193.953,603.892,245.97,582.649,292.66z"/>
		<path d="M489.57,702.51H302.457c-13.112,0-24.195,11.116-24.195,24.271v42.391c0,12.802,10.626,22.829,24.195,22.829H489.57
			c13.57,0,24.195-10.027,24.195-22.829V726.78C513.766,713.626,502.684,702.51,489.57,702.51z M494.926,769.176
			c0,2.618-2.694,3.989-5.355,3.989H302.457c-2.656,0-5.355-1.371-5.355-3.989v-42.391c0-2.51,2.336-5.431,5.355-5.431H489.57
			c3.02,0,5.355,2.921,5.355,5.431V769.176L494.926,769.176z"/>
	</g>
</g>
<g>
</g>
<g>
</g>
<g>
</g>
<g>
</g>
<g>
</g>
<g>
</g>
<g>
</g>
<g>
</g>
<g>
</g>
<g>
</g>
<g>
</g>
<g>
</g>
<g>
</g>
<g>
</g>
<g>
</g>
</svg>
