<?xml version="1.0" encoding="iso-8859-1"?>
<!-- Generator: Adobe Illustrator 19.0.0, SVG Export Plug-In . SVG Version: 6.00 Build 0)  -->
<svg version="1.1" id="Layer_1" xmlns="http://www.w3.org/2000/svg" xmlns:xlink="http://www.w3.org/1999/xlink" x="0px" y="0px"
	 viewBox="0 0 504.8 504.8" style="enable-background:new 0 0 504.8 504.8;" xml:space="preserve">
<path style="fill:#73BADD;" d="M345.2,313.4c41.2,0,79.6-16,108.8-45.2c60-60,60-157.6,0-217.2C424.8,21.8,386.4,5.8,345.2,5.8
	s-79.6,16-108.8,45.2c-58,58-60,151.2-5.6,211.6l11.2,11.2C270.4,299.4,306.4,313.4,345.2,313.4z M256,70.2
	c24-24,55.6-36.8,89.2-36.8c33.6,0,65.2,13.2,89.2,36.8c24,24,36.8,55.6,36.8,89.2s-13.2,65.2-36.8,89.2s-55.6,36.8-89.2,36.8
	c-33.6,0-65.2-13.2-89.2-36.8C206.8,199.8,206.8,119.4,256,70.2z"/>
<path style="fill:#F4EFEF;" d="M345.2,281.8c32.8,0,63.2-12.8,86.4-35.6c23.2-23.2,35.6-53.6,35.6-86.4s-12.8-63.2-35.6-86.4
	c-23.2-23.2-53.6-35.6-86.4-35.6c-32.8,0-63.2,12.8-86.4,35.6c-47.6,47.6-47.6,125.2,0,172.8C281.6,269,312.4,281.8,345.2,281.8z
	 M304.4,106.6c0-0.8,0-1.6,0-2.4c0.8-6.8,5.2-11.6,11.2-11.6c3.2,0,6.4,1.2,9.6,3.2l71.6,50.4c4.8,3.2,7.6,8,7.6,12.8
	c0,5.2-2.8,10-8,13.2l-71.2,50.4c-3.2,2.4-6.4,3.2-9.6,3.2c-6,0-10.4-4.4-11.2-11.6c0-0.8,0-1.6,0-2.4L304.4,106.6L304.4,106.6z"/>
<path style="fill:#4BB19B;" d="M217.2,251.8l-3.6,3.6c-8.8,8.8-8.8,23.6,0,32.4l3.2,3.2c8.8,8.8,23.6,8.8,32.4,0l3.6-3.6
	c-6.8-4.8-13.2-10.4-19.2-16.4C227.6,265,222,258.6,217.2,251.8z"/>
<path style="fill:#CCCCCC;" d="M242,273.8l-11.2-11.2c1.6,2,3.6,4,5.6,5.6C238.4,270.2,240,271.8,242,273.8z"/>
<path style="fill:#E8E3E3;" d="M187.2,328.6l31.2-31.2c-1.6-1.2-3.2-2.4-4.4-3.6l-3.2-3.2c-1.6-1.6-2.8-2.8-3.6-4.4L176,317.4
	L187.2,328.6z"/>
<path style="fill:#2884A9;" d="M12.8,459c-9.2,9.2-9.2,23.6,0,32.8c4.4,4.4,10.4,6.8,16.4,6.8c6.4,0,12-2.4,16.4-6.8l144.8-154
	l-4.8-4.8l0,0l-14-14l0,0l-4.8-4.8L12.8,459z"/>
<g>
	<polygon style="fill:#CCCCCC;" points="185.6,333 185.6,333 171.6,319 171.6,319 	"/>
	<path style="fill:#CCCCCC;" d="M304.4,213c0,0.8,0,1.6,0,2.4C304.4,214.6,304.4,213.8,304.4,213z"/>
</g>
<path style="fill:#54B265;" d="M315.6,222.6c2.4,0,4.8-0.8,7.2-2.8l71.2-50.4c4-2.8,6-6.4,6-10s-2-7.2-6-9.6l-71.6-50.4
	c-2.4-1.6-4.8-2.8-7.2-2.8c-4.4,0-7.2,4-7.2,10V213C308.4,219,311.2,222.6,315.6,222.6z"/>
<path style="fill:#CCCCCC;" d="M304.4,106.6c0-0.8,0-1.6,0-2.4C304.4,105,304.4,105.8,304.4,106.6z"/>
<path d="M345.2,319.4c-88,0-159.6-71.6-159.6-159.6S257.2,0.2,345.2,0.2s159.6,71.6,159.6,159.6
	C504.8,247.8,433.2,319.4,345.2,319.4z M345.2,7.8c-83.6,0-151.6,68-151.6,151.6S261.6,311,345.2,311s151.6-68,151.6-151.6
	S428.8,7.8,345.2,7.8z"/>
<path d="M345.2,287.8c-70.8,0-128-57.6-128-128c0-70.8,57.6-128,128-128c70.8,0,128,57.6,128,128S415.6,287.8,345.2,287.8z
	 M345.2,39.4c-66.4,0-120,54-120,120c0,66.4,54,120,120,120s120-54,120-120S411.2,39.4,345.2,39.4z"/>
<path d="M232.8,303.4c-7.6,0-14.8-2.8-20.4-8.4l-3.2-3.2c-11.2-11.2-11.2-29.6,0-40.8l5.2-5.2c1.6-1.6,4-1.6,5.6,0s1.6,4,0,5.6
	l-5.2,5.2c-8,8-8,21.2,0,29.6l3.2,3.2c4,4,9.2,6,14.8,6s10.8-2,14.8-6l5.2-5.2c1.6-1.6,4-1.6,5.6,0s1.6,4,0,5.6l-5.2,5.2
	C248,300.6,240.8,303.4,232.8,303.4z"/>
<path d="M187.2,335.4c-1.2,0-2-0.4-2.8-1.2l-14-14c-0.8-0.8-1.2-1.6-1.2-2.8c0-1.2,0.4-2,1.2-2.8l34-34c1.6-1.6,4-1.6,5.6,0
	s1.6,4,0,5.6l-31.2,31.2l8.4,8.4l31.2-31.2c1.6-1.6,4-1.6,5.6,0s1.6,4,0,5.6l-34,34C189.2,335,188,335.4,187.2,335.4z"/>
<path d="M29.2,504.6c-8,0-15.2-3.2-20.8-8.4C2.8,490.6,0,483.4,0,475.4s3.2-15.2,8.4-20.8L164,308.2c1.6-1.6,4-1.6,5.6,0l26.4,26.4
	c1.6,1.6,1.6,4,0,5.6L50,495.4C44.4,501.4,37.2,504.6,29.2,504.6z M166.8,317L14.4,460.6c-4,4-6,9.2-6,14.8c0,5.6,2.4,11.2,6.4,15.2
	S24,497,30,497s11.2-2.4,15.2-6.4l143.2-152.4L166.8,317z"/>
<path d="M32,481.4c-1.2,0-2-0.4-2.8-1.2l-18.8-18.8c-1.6-1.6-1.6-4,0-5.6s4-1.6,5.6,0l18.8,18.8c1.6,1.6,1.6,4,0,5.6
	C34,481,33.2,481.4,32,481.4z"/>
<path d="M431.2,114.6c-1.2,0-2.8-0.8-3.6-2c-17.6-30.8-50.8-49.2-86.4-48c-2.4,0-4-1.6-4-4s1.6-4,4-4c38.4-1.6,74.4,18.4,93.6,52
	c1.2,2,0.4,4.4-1.6,5.6C432.4,114.2,431.6,114.6,431.2,114.6z"/>
<path d="M316.8,228.6c-2,0-3.6-0.4-5.6-1.2c-4.4-2.4-7.2-7.6-7.2-14.4V106.6c0-7.2,2.4-12,7.2-14.4c4.4-2.4,10-1.6,16,2.4L398,145
	c5.6,3.6,8.4,9.2,8.4,14.8c0,5.6-3.2,11.2-8.4,14.8L327.2,225l0,0C323.6,227.4,320,228.6,316.8,228.6z M316.8,98.6
	c-0.8,0-1.2,0-1.6,0.4c-1.6,0.8-2.8,3.6-2.8,7.6V213c0,3.6,1.2,6.4,2.8,7.6c1.6,0.8,4.4,0,7.6-2l70.8-50.4c3.2-2.4,5.2-5.2,5.2-8.4
	c0-2.8-2-6-5.2-8l-70.8-50.4C320.4,99.4,318.4,98.6,316.8,98.6z"/>
<g>
</g>
<g>
</g>
<g>
</g>
<g>
</g>
<g>
</g>
<g>
</g>
<g>
</g>
<g>
</g>
<g>
</g>
<g>
</g>
<g>
</g>
<g>
</g>
<g>
</g>
<g>
</g>
<g>
</g>
</svg>
