<?xml version="1.0" encoding="iso-8859-1"?>
<!-- Generator: Adobe Illustrator 19.0.0, SVG Export Plug-In . SVG Version: 6.00 Build 0)  -->
<svg version="1.1" id="Layer_1" xmlns="http://www.w3.org/2000/svg" xmlns:xlink="http://www.w3.org/1999/xlink" x="0px" y="0px"
	 viewBox="0 0 512 512" style="enable-background:new 0 0 512 512;" xml:space="preserve">
<g>
	<g>
		<path d="M384.094,53.303C350.281,19.267,305.249,0.339,257.291,0.004C256.874,0.001,256.46,0,256.043,0
			c-57.962,0-112.738,28.123-146.726,75.402l13.129,9.438c30.956-43.061,80.825-68.672,133.597-68.672
			c0.376,0,0.759,0.001,1.135,0.004c89.995,0.626,163.209,74.365,163.209,164.375c0,52.118-23.916,100.014-65.616,131.405
			l9.724,12.917c21.887-16.476,40.018-38.048,52.435-62.384c13.022-25.523,19.625-53.092,19.625-81.938
			C436.555,132.544,417.925,87.355,384.094,53.303z"/>
	</g>
</g>
<g>
	<g>
		<path d="M361.103,439.242c0-8.488-3.593-16.149-9.329-21.558c5.737-5.409,9.329-13.069,9.329-21.558
			c0-16.345-13.298-29.642-29.642-29.642h-67.368v-78.147h-16.168v78.147h-59.709c-2.253-21.451-13.375-41.34-30.707-54.334
			c-41.867-31.385-65.878-79.351-65.879-131.598c-0.001-19.675,3.455-38.926,10.27-57.219l-15.152-5.645
			c-7.49,20.105-11.288,41.256-11.287,62.864c0.001,28.91,6.631,56.531,19.709,82.098c12.469,24.379,30.672,45.968,52.639,62.437
			c13.615,10.205,22.383,25.793,24.27,42.639c-12.227,3.656-21.166,15.001-21.166,28.4c0,8.488,3.593,16.149,9.329,21.558
			c-5.738,5.409-9.329,13.069-9.329,21.558c0,8.488,3.593,16.149,9.329,21.558c-5.738,5.409-9.329,13.069-9.329,21.558
			c0,16.345,13.298,29.642,29.642,29.642h150.905c16.344,0,29.642-13.297,29.642-29.642c0-8.488-3.593-16.149-9.329-21.558
			C357.511,455.391,361.103,447.731,361.103,439.242z M331.461,495.832H180.555c-7.43,0-13.474-6.044-13.474-13.474
			s6.044-13.474,13.474-13.474h150.905c7.43,0,13.474,6.044,13.474,13.474S338.891,495.832,331.461,495.832z M331.461,452.716
			H180.555c-7.43,0-13.474-6.044-13.474-13.474s6.044-13.474,13.474-13.474h150.905c7.43,0,13.474,6.044,13.474,13.474
			S338.891,452.716,331.461,452.716z M331.461,409.6H180.555c-7.43,0-13.474-6.044-13.474-13.474c0-7.43,6.044-13.474,13.474-13.474
			h150.905c7.43,0,13.474,6.044,13.474,13.474C344.934,403.556,338.891,409.6,331.461,409.6z"/>
	</g>
</g>
<g>
	<g>
		
			<rect x="247.916" y="-94.625" transform="matrix(0.7071 -0.7071 0.7071 0.7071 -106.0234 255.9937)" width="16.168" height="701.207"/>
	</g>
</g>
<g>
	<g>
		<polygon points="304.186,131.716 256.008,179.894 207.831,131.716 196.396,143.148 247.924,194.674 247.924,223.663 
			264.092,223.663 264.092,194.674 315.62,143.148 		"/>
	</g>
</g>
<g>
	<g>
		<rect x="247.385" y="97.011" width="16.168" height="16.168"/>
	</g>
</g>
<g>
	<g>
		<rect x="215.048" y="97.011" width="16.168" height="16.168"/>
	</g>
</g>
<g>
	<g>
		<rect x="279.722" y="97.011" width="16.168" height="16.168"/>
	</g>
</g>
<g>
</g>
<g>
</g>
<g>
</g>
<g>
</g>
<g>
</g>
<g>
</g>
<g>
</g>
<g>
</g>
<g>
</g>
<g>
</g>
<g>
</g>
<g>
</g>
<g>
</g>
<g>
</g>
<g>
</g>
</svg>
